<svg width="512" height="512" xmlns="http://www.w3.org/2000/svg">
 <g>
  <title>Layer 1</title>
  <path d="m334.142,68.458l-276.383,0c-27.315,0 -49.459,22.143 -49.459,49.459l0,276.383c0,27.315 22.143,49.459 49.459,49.459l276.383,0c27.315,0 49.459,-22.143 49.459,-49.459l0,-276.383c0,-27.316 -22.143,-49.459 -49.459,-49.459z" fill="#b4bbcc" id="svg_1"/>
  <path d="m311.533,118.536l-231.165,0c-12.145,0 -21.989,9.845 -21.989,21.989l0,231.165c0,12.145 9.845,21.989 21.989,21.989l231.165,0c12.145,0 21.989,-9.845 21.989,-21.989l0,-231.164c0.001,-12.144 -9.844,-21.99 -21.989,-21.99z" fill="#FFFFFF" id="svg_2"/>
  <path d="m80.533,162.68c0,-12.145 9.845,-21.989 21.989,-21.989l231,0l0,-0.165c0,-12.145 -9.845,-21.989 -21.99,-21.989l-231.164,0c-12.145,0 -21.989,9.845 -21.989,21.989l0,231.164c0,12.145 9.845,21.989 21.989,21.989l0.165,0c0,0.001 0,-230.999 0,-230.999z" opacity="0.1" id="svg_3"/>
  <path d="m505.267,79.625c-12.703,-19.846 -39.185,-25.654 -59.034,-12.952c-19.924,12.754 -38.466,25.749 -55.689,38.755c-5.721,-25.872 -28.826,-45.288 -56.393,-45.288l-188,0c-4.589,0 -8.308,3.72 -8.308,8.308s3.719,8.308 8.308,8.308l188,0c22.441,0 40.744,18.058 41.144,40.407c-11.818,9.333 -22.952,18.635 -33.456,27.843l0,-4.489c0,-16.706 -13.592,-30.297 -30.297,-30.297l-42.44,0c-4.589,0 -8.308,3.72 -8.308,8.308c0,4.588 3.719,8.308 8.308,8.308l42.44,0c7.545,0 13.682,6.138 13.682,13.682l0,19.454c-43.35,40.131 -74.373,77.586 -95.15,106.194l-75.672,-73.761c-16.878,-16.449 -43.988,-16.1 -60.434,0.773c-16.449,16.874 -16.102,43.986 0.772,60.434l42.312,41.243c1.538,1.499 3.677,2.377 5.827,2.357c2.207,-0.02 4.38,-0.926 5.923,-2.508c3.202,-3.286 3.135,-8.545 -0.151,-11.747l-42.312,-41.243c-10.314,-10.054 -10.526,-26.624 -0.472,-36.938c10.05,-10.312 26.622,-10.525 36.937,-0.472c0,0 82.588,80.503 82.604,80.52c1.73,1.686 4.168,2.549 6.573,2.323c2.425,-0.227 4.629,-1.507 6.027,-3.5c1.598,-2.279 3.217,-4.543 4.849,-6.798c32.546,-44.924 100.111,-124.333 212.336,-196.178c12.131,-7.765 28.317,-4.215 36.082,7.916c7.766,12.13 4.215,28.317 -7.916,36.082c-41.379,26.49 -76.207,53.982 -105.133,80.203c-0.064,0.054 -0.134,0.097 -0.197,0.154c-19.526,17.704 -36.341,34.813 -50.66,50.644c-11.006,12.171 -21.709,24.885 -31.784,37.934c-22.429,29.024 -33.228,48.602 -34.681,51.299c-0.033,0.061 -0.062,0.115 -0.086,0.16c-0.017,0.032 -0.027,0.051 -0.04,0.074c-0.03,0.056 -0.052,0.098 -0.058,0.109c-3.804,7.284 -10.918,12.407 -19.035,13.703c-8.1,1.295 -16.481,-1.364 -22.352,-7.088l-46.817,-45.634c-0.411,-0.401 -0.853,-0.75 -1.317,-1.048c-3.253,-2.088 -7.631,-1.676 -10.431,1.199c-3.202,3.286 -3.135,8.545 0.151,11.747l46.817,45.634c8.025,7.825 18.62,12.134 29.829,12.134c7.233,0 14.475,-1.89 20.791,-5.418c7.198,-4.019 13.203,-10.084 17.09,-17.526c0.298,-0.565 15.541,-28.918 49.779,-69.47l0,88.207c0,7.545 -6.137,13.683 -13.682,13.683l-231.166,0c-7.545,0 -13.683,-6.138 -13.683,-13.683l0,-231.169c0,-7.544 6.138,-13.682 13.683,-13.682l155.493,0c4.589,0 8.308,-3.72 8.308,-8.308c0,-4.588 -3.719,-8.308 -8.308,-8.308l-155.493,0c-16.707,0 -30.299,13.592 -30.299,30.297l0,231.165c0,16.707 13.592,30.299 30.299,30.299l231.166,0c16.706,0 30.297,-13.592 30.297,-30.299l0,-107.127c9.925,-10.88 21.059,-22.366 33.462,-34.224l0,163.961c0,22.691 -18.46,41.151 -41.15,41.151l-276.385,0c-22.691,0 -41.151,-18.46 -41.151,-41.152l0,-276.382c0,-22.691 18.46,-41.151 41.151,-41.151l55.151,0c4.589,0 8.308,-3.72 8.308,-8.308s-3.719,-8.308 -8.308,-8.308l-55.151,0c-31.852,0 -57.767,25.914 -57.767,57.767l0,276.382c0,31.853 25.915,57.767 57.767,57.767l276.383,0c31.853,0 57.766,-25.914 57.766,-57.767l0,-179.363c27.795,-24.978 61.074,-51.092 100.401,-76.267c19.846,-12.707 25.657,-39.19 12.95,-59.035z" id="svg_4" stroke="null"/>
  <g id="svg_5"/>
  <g id="svg_6"/>
  <g id="svg_7"/>
  <g id="svg_8"/>
  <g id="svg_9"/>
  <g id="svg_10"/>
  <g id="svg_11"/>
  <g id="svg_12"/>
  <g id="svg_13"/>
  <g id="svg_14"/>
  <g id="svg_15"/>
  <g id="svg_16"/>
  <g id="svg_17"/>
  <g id="svg_18"/>
  <g id="svg_19"/>
  <rect fill="#ffffff" stroke-width="null" stroke-dasharray="null" stroke-opacity="null" opacity="undefined" x="81.53312" y="152.83538" width="243.6854" height="226.05618" id="svg_20" rx="11" stroke="null"/>
  <rect fill="#c7c7c7" stroke-width="null" stroke-dasharray="null" stroke-opacity="null" opacity="undefined" x="392.08783" y="49.77947" width="119.83613" height="175.90574" id="svg_21" stroke="null"/>
  <rect fill="#b4bbcc" stroke-width="null" stroke-dasharray="null" stroke-opacity="null" opacity="undefined" x="341.56273" y="117.49252" width="34" height="160.00045" id="svg_26" stroke="null"/>
  <rect fill="null" stroke-width="null" stroke-dasharray="null" stroke-opacity="null" fill-opacity="null" opacity="undefined" x="325.31269" y="157.99263" width="16.25005" height="101.25029" id="svg_27" stroke="null"/>
  <rect fill="null" stroke-width="null" stroke-dasharray="null" stroke-opacity="null" fill-opacity="null" opacity="undefined" x="375.31283" y="117.36752" width="16.25005" height="101.25029" id="svg_30" stroke="null"/>
 </g>

</svg>